<svg width="34" height="47" viewBox="0 0 34 47" fill="none" xmlns="http://www.w3.org/2000/svg">
<g clip-path="url(#clip0_46_73)">
<path d="M18.3 20.63C10.72 19.09 8.28 17.5 8.28 15.02C8.28 12.17 11.65 10.19 17.3 10.19C23.25 10.19 25.45 12.41 25.65 15.67H33.03C32.8 11.18 29.29 7.05 22.31 5.72V0H12.29V5.64C5.81 6.74 0.6 10.03 0.6 15.07C0.6 21.1 6.98 24.1 16.3 25.85C24.65 27.42 26.32 29.71 26.32 32.14C26.32 33.94 24.68 36.81 17.3 36.81C10.42 36.81 7.71 34.41 7.35 31.33H0C0.4 37.05 5.88 40.26 12.29 41.33V47H22.31V41.39C28.82 40.42 34 37.47 34 32.12C34 24.7 25.88 22.17 18.3 20.63Z" fill="#0E283D"/>
</g>
<defs>
<clipPath id="clip0_46_73">
<rect width="34" height="47" fill="white"/>
</clipPath>
</defs>
</svg>
