<svg width="47" height="47" viewBox="0 0 47 47" fill="none" xmlns="http://www.w3.org/2000/svg">
<path d="M23.5 47C20.76 47 18.18 46.57 15.75 45.71C13.33 44.85 11.11 43.64 9.09999 42.08L4.98999 46.12C4.44999 46.66 3.76999 46.93 2.92999 46.93C2.08999 46.93 1.40999 46.66 0.86999 46.12C0.32999 45.58 0.0599902 44.9 0.0599902 44.06C0.0599902 43.22 0.32999 42.54 0.86999 42L4.90999 37.96C3.33999 35.95 2.12999 33.73 1.27999 31.28C0.41999 28.83 -0.0100098 26.24 -0.0100098 23.5C-9.76585e-06 16.94 2.27999 11.38 6.82999 6.83C11.38 2.28 16.94 0 23.5 0H47V23.5C47 30.06 44.72 35.62 40.17 40.17C35.62 44.72 30.06 47 23.5 47ZM23.5 41.12C28.4 41.12 32.56 39.41 35.98 35.98C39.41 32.55 41.12 28.39 41.12 23.5V5.88H23.5C18.6 5.88 14.44 7.59 11.02 11.02C7.58999 14.45 5.87999 18.61 5.87999 23.5C5.87999 25.41 6.16999 27.23 6.75999 28.97C7.34999 30.71 8.15999 32.29 9.17999 33.71L24.38 18.51C24.92 17.97 25.6 17.7 26.44 17.7C27.28 17.7 27.96 17.97 28.5 18.51C29.09 19.1 29.38 19.79 29.38 20.6C29.38 21.41 29.09 22.11 28.5 22.69L13.3 37.89C14.72 38.92 16.3 39.71 18.04 40.28C19.78 40.84 21.6 41.13 23.51 41.13L23.5 41.12Z" fill="#0E283D"/>
</svg>
