<svg width="42" height="47" viewBox="0 0 42 47" fill="none" xmlns="http://www.w3.org/2000/svg">
<g clip-path="url(#clip0_46_152)">
<path d="M40.83 9.4C34.74 11.05 27.6 11.75 21 11.75C14.4 11.75 7.26 11.05 1.17 9.4L0 14.1C4.34 15.27 9.33 16.05 14 16.45V47H18.67V32.9H23.34V47H28.01V16.45C32.68 16.05 37.67 15.27 42.01 14.1L40.84 9.4H40.83ZM21 9.4C23.57 9.4 25.67 7.29 25.67 4.7C25.67 2.11 23.57 0 21 0C18.43 0 16.33 2.11 16.33 4.7C16.33 7.29 18.43 9.4 21 9.4Z" fill="#0E283D"/>
</g>
<defs>
<clipPath id="clip0_46_152">
<rect width="42" height="47" fill="white"/>
</clipPath>
</defs>
</svg>
